<svg xmlns="http://www.w3.org/2000/svg" xmlns:xlink="http://www.w3.org/1999/xlink" xmlns:v="https://vecta.io/nano" width="95" height="126"><style><![CDATA[.B{fill:rgb(0%,0%,0%)}.C{fill:rgb(71.372549%,80%,85.490196%)}.D{fill:rgb(100%,100%,100%)}.E{fill:rgb(45.882353%,55.686275%,64.313725%)}.F{stroke:none}.G{fill:rgb(81.960784%,82.352941%,83.137255%)}.H{filter:url(#A)}.I{fill-opacity:.561}.J{fill-rule:nonzero}.K{fill:rgb(85.490196%,86.666667%,88.627451%)}.L{fill-opacity:1}.M{fill:rgb(87.058824%,90.980392%,91.372549%)}.N{fill:rgb(71.764706%,76.862745%,74.117647%)}.O{fill:rgb(74.509804%,76.470588%,77.647059%)}.P{fill:rgb(84.705882%,85.882353%,87.843137%)}.Q{fill:rgb(45.098039%,47.058824%,48.627451%)}]]></style><defs><filter id="A" x="0%" y="0%" width="100%" height="100%"></filter><mask id="B"><g class="H"><path d="M0 0h95v126H0z" class="B F I"></path></g></mask><clipPath id="C"><path d="M0 0h95v126H0z"></path></clipPath><g id="D" clip-path="url(#C)"><path d="M26.445 89.238s5.539-.937 8.637.441c1.09 4.051 1.938 8.16 2.547 12.309.887 6.348.332 14.57.332 14.57s-5.039-.496-7.086 0c0 0 .719-10.43-.332-14.129s-4.098-13.191-4.098-13.191zm0 0" class="F J K L"></path></g><mask id="E"><g class="H"><path d="M0 0h95v126H0z" class="B F I"></path></g></mask><clipPath id="F"><path d="M0 0h95v126H0z"></path></clipPath><g id="G" clip-path="url(#F)"><path d="M40.453 105.355l7.531 1.324-.391 12.367c.059.719-7.141-1.219-7.141-1.219s.5-7.395 0-12.473zm0 0" class="F J K L"></path></g><mask id="H"><g class="H"><path d="M0 0h95v126H0z" class="B F I"></path></g></mask><clipPath id="I"><path d="M0 0h95v126H0z"></path></clipPath><g id="J" clip-path="url(#I)"><path d="M39.527 99.57s5.246.375 8.457 1.535v3.754s-5.535-1.27-8.141-1.27zm0 0" class="F J K L"></path></g><mask id="K"><g class="H"><path d="M0 0h95v126H0z" class="B F I"></path></g></mask><clipPath id="L"><path d="M0 0h95v126H0z"></path></clipPath><g id="M" clip-path="url(#L)"><path d="M54.238 112.805l6.922-1.434-.332-4.746-6.977 1.16zm0 0" class="F J K L"></path></g><mask id="N"><g class="H"><path d="M0 0h95v126H0z" class="B F I"></path></g></mask><clipPath id="O"><path d="M0 0h95v126H0z"></path></clipPath><g id="P" clip-path="url(#O)"><path d="M54.297 113.914s10.465-2.652 16.941-1.105l.285 2.98s-9.137-.398-17.219 3.406c-.008.008-.176-4.512-.008-5.281zm0 0" class="F J K L"></path></g><path id="Q" d="M92.582 72.91c0 23.785-19.34 43.066-43.199 43.066S6.188 96.695 6.188 72.91s19.34-43.066 43.195-43.066S92.582 49.125 92.582 72.91zm0 0"></path><path id="R" d="M65.898 77.465c-2.277-3.75-1.344-6.293-1.344-6.293H42.047s.945 2.555-1.34 6.293-7.242 10.313 3.234 13.809c7.449 2.477 9.059 1.422 9.367.621.309.813 1.918 1.855 9.367-.621 10.477-3.496 5.508-10.059 3.223-13.809zm0 0"></path><path id="S" d="M46.438 79.914c-2.422 2.063-3.832 7.164-4.535 10.547.664.313 1.344.582 2.039.813 7.449 2.473 9.059 1.418 9.367.617.285.754 1.691 1.703 7.816-.129-.996-13.922-11.227-14.809-14.687-11.848zm0 0"></path><path id="T" d="M59.141 29.676s1.406-11.289-6.719-11.25-7.859 9.441.285 12.723 6.434-1.473 6.434-1.473zm0 0"></path><path id="U" d="M66.547 32.074s-1.344-14.062 4.77-13.66 11.617 9.977 8.195 15.336-6.383 1.543-12.227 4.262-.738-5.937-.738-5.937zm0 0"></path><path id="V" d="M59.016 32.141c-3.129-.133-5.812 3.137-5.992 7.309s2.211 7.66 5.34 7.793 5.813-3.137 5.992-7.305-2.211-7.66-5.34-7.797zm0 0"></path><path id="W" d="M18.266 2.875c-2.375 5.617-8.43 21.723-6.57 35.898.133.988.766 1.844 1.68 2.258 2.676 1.223 8.672 3 14.676-1.703a2.69 2.69 0 0 0 .754-3.301c-2.359-4.859-8.547-18.746-9.516-32.977a.53.53 0 0 0-.445-.492.53.53 0 0 0-.578.316zm0 0"></path><path id="X" d="M33.953 17.563c-1.18 2.785-4.184 10.777-3.262 17.813a1.44 1.44 0 0 0 .836 1.121 6.85 6.85 0 0 0 7.281-.852c.496-.391.652-1.07.375-1.637-1.168-2.414-4.234-9.309-4.723-16.371a.27.27 0 0 0-.223-.234c-.121-.016-.238.047-.285.16zm0 0"></path><path id="Y" d="M48.883 92.328l.516-.957s-7.16-9.492-26.648-9.125c0 0 2.359 6.246 2.434 8.539s21.84 6.172 21.84 6.172zm0 0"></path><path id="Z" d="M52.559 90.637s5.242-9.273 25.613-8.391l-3.098 7.215zm0 0"></path><path id="a" d="M50.27 92.695s-12.25-11.406-28.488-5.523c0 0 4.504 6.848 4.875 13.324s1.551 11.555.516 18.176c0 0 10.039-3.457 23.105 5.082 0 0 11.887-8.023 23.18-4.859 0 0-.961-10.305-.59-15.75s5.695-17.66 5.695-17.66-17.809-2.797-28.293 7.211zm0 0"></path></defs><path d="M93.992 72.91c.004-13.691-6.328-26.617-17.156-35.035 1.301-.449 2.602-1.391 3.875-3.375 1.777-2.785 1.691-6.715-.234-10.508-2.039-4.016-5.598-6.762-9.059-6.988-1.387-.109-2.746.414-3.703 1.422-2.441 2.508-2.754 7.898-2.695 11.172a11.35 11.35 0 0 0-1.109-.566c-1.039-.496-2.133-.867-3.262-1.117 0-2.273-.348-6.055-2.539-8.52-1.426-1.59-3.316-2.379-5.699-2.375-4.617.02-6.77 2.676-7.246 5.152-.379 1.945.168 4.277 1.707 6.336h-.012c-1.566-.949-3.605-1.703-5.84-1.359-.977.148-1.918.488-2.766.996-1.078-3.008-2.121-6.777-2.387-10.598-.047-.777-.629-1.418-1.398-1.543s-1.527.289-1.824 1.008c-1.191 2.824-3.723 9.645-3.535 16.285l-.031.016c-2.812-6.152-7.547-18.109-8.391-30.355-.074-.883-.738-1.605-1.613-1.754a1.95 1.95 0 0 0-2.102 1.125c-2.594 6.148-8.387 21.848-6.73 36.051l-.965 1.676c-.082-.07-.168-.133-.262-.199a6.13 6.13 0 0 0-1.609-.777c-.152-.047-.316-.074-.477-.113-.168-.043-.336-.074-.504-.086l-.523-.055h-.82l-.309.039c-.211.035-.418.086-.621.16a3.52 3.52 0 0 0-1.125.703c-.633.637-1.043 1.461-1.172 2.348-.23 1.621.223 3.266 1.246 4.547a6.45 6.45 0 0 0 1.512 1.383 4.37 4.37 0 0 0 .57.336c-2.43 5.777-3.59 10.629-4.113 14.27-.391 2.676 1.309 5.211 3.938 5.875-.141 1.457-.219 2.934-.219 4.426.008 15.605 8.219 30.066 21.637 38.109.145 2.5.031 5.012-.344 7.488-.059.383.086.766.383 1.016a1.12 1.12 0 0 0 1.07.199c.094-.035 9.734-3.148 22.141 4.957a1.11 1.11 0 0 0 .605.18 1.1 1.1 0 0 0 .621-.191c.113-.074 11.586-7.699 22.262-4.707a1.11 1.11 0 0 0 1.008-.215c.281-.234.426-.59.391-.949 0-.066-.398-4.352-.566-8.805 12.48-8.234 19.992-22.16 19.996-37.082zm0 0" class="C"></path><path d="M50.27 125.863c-.41 0-.816-.121-1.16-.348-11.875-7.758-21.176-4.871-21.27-4.828a2.11 2.11 0 0 1-2.035-.387 2.1 2.1 0 0 1-.73-1.934c.34-2.234.461-4.5.355-6.758-6.43-3.973-11.773-9.469-15.562-15.996A45.26 45.26 0 0 1 3.77 72.922a45.83 45.83 0 0 1 .152-3.723A6.27 6.27 0 0 1 .066 62.48a58.8 58.8 0 0 1 3.852-13.719c-.609-.418-1.152-.926-1.609-1.508C1.113 45.762.59 43.844.859 41.953a5.2 5.2 0 0 1 1.469-2.941c.426-.398.922-.711 1.465-.922l.082-.027.129-.035c.219-.078.445-.129.676-.156l.285-.039h.93a.51.51 0 0 1 .109 0l.527.051a3.61 3.61 0 0 1 .641.113l.133.027c.141.031.285.063.41.105.422.129.828.301 1.215.508l.285-.473C7.656 23.793 13.469 8.07 16.055 1.945A2.95 2.95 0 0 1 19.262.188c1.348.223 2.363 1.344 2.457 2.703.684 9.895 3.953 19.625 6.625 26.133.637-5.363 2.488-10.242 3.398-12.398.48-1.137 1.688-1.797 2.91-1.594s2.148 1.215 2.238 2.445c.262 3.156.918 6.262 1.957 9.254a8.98 8.98 0 0 1 2.031-.57 8.56 8.56 0 0 1 3.734.254 8.38 8.38 0 0 1-.414-4.426c.555-2.867 3.008-5.941 8.23-5.965 2.672 0 4.844.914 6.438 2.715 2.113 2.367 2.699 5.734 2.785 8.391a16.66 16.66 0 0 1 2.371.852c.086-3.672.73-7.934 2.973-10.227 1.156-1.23 2.805-1.875 4.492-1.75 3.809.25 7.691 3.207 9.887 7.531 2.09 4.117 2.156 8.418.188 11.504a9.83 9.83 0 0 1-2.871 3.039c10.957 9.152 16.973 22.898 16.246 37.133s-8.105 27.301-19.934 35.301a200.72 200.72 0 0 0 .551 8.172c.066.695-.211 1.375-.746 1.82a2.13 2.13 0 0 1-1.93.418c-10.16-2.844-21.316 4.496-21.426 4.57a2.13 2.13 0 0 1-1.184.371zm-17.738-7.754c4.191 0 10.508 1.039 17.684 5.727.035.027.082.027.113 0 .121-.082 12.016-7.953 23.098-4.828.031.008.066 0 .09-.023s.035-.051.035-.082c-.043-.469-.414-4.602-.586-8.848-.012-.352.156-.687.449-.879 11.711-7.703 18.984-20.555 19.539-34.531s-5.676-27.359-16.738-35.961a.99.99 0 0 1-.375-.953 1 1 0 0 1 .66-.785c1.273-.437 2.34-1.383 3.352-2.969 1.586-2.477 1.48-6.035-.285-9.512-1.883-3.707-5.109-6.234-8.223-6.437-1.086-.098-2.16.309-2.906 1.102-2.223 2.273-2.465 7.527-2.414 10.453.004.359-.184.699-.496.883s-.699.184-1.016.004c-.352-.203-.691-.379-1.031-.539a14.58 14.58 0 0 0-3.051-1.043 1.01 1.01 0 0 1-.793-.984c0-1.961-.285-5.594-2.277-7.844-1.223-1.371-2.832-2.039-4.926-2.039-5.035.027-6.062 3.328-6.27 4.34-.34 1.77.211 3.793 1.52 5.551.223.297.258.691.102 1.027s-.492.555-.863.574c-.203.004-.398-.047-.57-.145-1.777-1.074-3.512-1.488-5.156-1.23-.852.129-1.668.418-2.406.855-.258.152-.574.184-.859.086a1.01 1.01 0 0 1-.609-.609c-1.391-3.883-2.211-7.535-2.441-10.867a.67.67 0 0 0-.559-.605c-.305-.055-.602.109-.727.391-1.098 2.602-3.637 9.359-3.453 15.863a1 1 0 0 1-.566.93c-.25.125-.539.145-.805.059a1.04 1.04 0 0 1-.598-.523c-2.797-6.129-7.621-18.266-8.48-30.707a.93.93 0 0 0-.777-.859c-.43-.074-.848.156-1.02.555-2.543 6.023-8.293 21.555-6.656 35.543a1.01 1.01 0 0 1-.137.629l-.957 1.652c-.145.258-.398.438-.687.492a1.02 1.02 0 0 1-.82-.207c-.066-.055-.137-.109-.215-.164-.406-.277-.852-.488-1.32-.633a1.84 1.84 0 0 0-.242-.062l-.176-.039c-.109-.031-.223-.051-.336-.059l-.5-.051h-.684l-.25.035c-.105.016-.211.039-.309.074l-.117.035a2.42 2.42 0 0 0-.77.492c-.465.484-.766 1.105-.855 1.77a4.95 4.95 0 0 0 1.047 3.754c.355.453.789.848 1.273 1.164.152.105.313.199.48.285.457.242.656.793.457 1.273-1.937 4.484-3.297 9.199-4.047 14.023a4.28 4.28 0 0 0 3.188 4.758 1.01 1.01 0 0 1 .754 1.07 43.45 43.45 0 0 0-.215 4.328c.047 15.254 8.059 29.383 21.145 37.289.289.176.469.477.488.813a36.98 36.98 0 0 1-.355 7.691c0 .035.012.07.039.094s.063.027.098.016c.016-.016 2.012-.66 5.316-.66zm0 0" class="B"></path><use xlink:href="#Q" class="C"></use><path d="M49.383 117.383c-24.594 0-44.605-19.949-44.605-44.473s20.012-44.473 44.605-44.473S93.992 48.383 93.992 72.91s-20.008 44.473-44.609 44.473zm0-86.133c-23.039 0-41.785 18.688-41.785 41.66s18.746 41.656 41.785 41.656 41.789-18.687 41.789-41.66S72.426 31.25 49.383 31.25zm0 0" class="B"></path><g fill="rgb(99.607843%,78.431373%,2.352941%)"><use xlink:href="#Q"></use><path d="M68.398 34.23c15.043 10.563 20.738 30.102 13.723 47.055s-24.883 26.797-43.016 23.707S7.406 86.703 6.434 68.387c-.156 1.504-.234 3.012-.238 4.523.004 21.266 15.578 39.348 36.664 42.566s41.375-9.398 47.754-29.691S87.555 43.59 68.398 34.23zm0 0"></path></g><use xlink:href="#R" class="C"></use><path d="M55.602 94.211c-.785.027-1.57-.117-2.293-.422-2.242 1.07-6.5-.094-9.812-1.195-3.848-1.277-6.145-3.07-7.016-5.477-1.266-3.5.953-7.047 2.566-9.637l.461-.746c1.855-3.043 1.242-5.02 1.215-5.113a1.38 1.38 0 0 1 .172-1.277 1.4 1.4 0 0 1 1.164-.586h22.492c.465-.004.895.223 1.16.598s.324.859.168 1.293c-.02.055-.633 2.031 1.223 5.078l.461.742c1.621 2.594 3.836 6.141 2.566 9.641-.871 2.406-3.164 4.195-7.016 5.477-2.379.801-5.254 1.625-7.512 1.625zm-1.02-2.937c.266.121 1.855.594 7.652-1.332 2.938-.98 4.703-2.242 5.254-3.766.801-2.215-1-5.094-2.312-7.195l-.477-.773c-1.426-2.328-1.75-4.285-1.746-5.617H43.668c0 1.332-.324 3.289-1.746 5.617l-.477.773c-1.312 2.102-3.113 4.98-2.312 7.195.551 1.523 2.32 2.785 5.254 3.766 5.797 1.926 7.387 1.453 7.656 1.332.242-.473.734-.77 1.266-.77a1.42 1.42 0 0 1 1.266.77zm0 0" class="B"></path><use xlink:href="#R" class="C"></use><use xlink:href="#S" class="D"></use><path d="M55.582 94.023c-.785.031-1.566-.125-2.281-.457-2.137 1.117-6.41-.059-9.742-1.156-.738-.242-1.465-.523-2.168-.852l-.855-.406.195-.93c.801-3.887 2.313-8.988 4.93-11.223 2.133-1.816 5.785-2.18 8.883-.887 2.629 1.094 7.125 4.313 7.797 13.566l.07.961-.93.285c-1.863.535-4.078 1.098-5.898 1.098zm-12.285-4.281a19.56 19.56 0 0 0 1.027.375c6.309 2.094 7.691 1.398 7.871 1.293l1.113-2.926 1.113 2.922c.141.094 1.184.613 5.414-.539-.785-7.215-4.203-9.703-6.23-10.547-2.562-1.062-5.145-.566-6.379.5-1.535 1.301-2.902 4.453-3.93 8.922zm0 0" class="B"></path><use xlink:href="#S" class="D"></use><path d="M59.172 92.281l1.953-.531c-.902-12.625-9.402-14.52-13.562-12.562 4.41-.645 10.813 2.262 11.609 13.094zm-7.609.504a1.05 1.05 0 0 1-.203-.328 1.03 1.03 0 0 1-.227.348l.43-.02zm0 0" class="G"></path><use xlink:href="#T" class="C"></use><path d="M57.223 33.715c-1.309 0-2.977-.422-5.059-1.262-5.465-2.207-7.652-6.844-6.992-10.281.477-2.477 2.633-5.129 7.246-5.152 2.371 0 4.273.789 5.699 2.375 2.898 3.25 2.594 8.805 2.469 10.16.164.688.352 2.191-.777 3.266-.637.594-1.484.895-2.586.895zm-4.754-13.883h-.035c-2.504 0-4.145 1.059-4.492 2.871-.434 2.254 1.27 5.523 5.285 7.141 3.738 1.512 4.617.949 4.621.941a1.27 1.27 0 0 0-.035-.641 1.38 1.38 0 0 1-.07-.641c0-.078.641-5.566-1.746-8.238-.844-.969-2.012-1.434-3.527-1.434zm0 0" class="B"></path><use xlink:href="#U" class="C"></use><path d="M65.473 39.938c-.668.023-1.316-.246-1.773-.734-1.422-1.57-.078-4.832 1.426-7.449-.164-2.164-.531-10.113 2.598-13.324.957-1.008 2.32-1.527 3.703-1.422 3.465.23 7.02 2.973 9.059 6.988 1.926 3.797 2.016 7.723.234 10.512-2.418 3.777-4.945 3.785-7.383 3.777-1.621 0-3.289 0-5.437.992-.75.387-1.578.613-2.426.66zm5.598-20.125c-.508-.012-.992.195-1.336.57-1.906 1.957-2.098 8.125-1.773 11.551.027.297-.035.594-.187.852-.906 1.531-1.664 3.316-1.84 4.242.262-.082.52-.184.766-.301 2.715-1.262 4.902-1.254 6.629-1.258 2.277 0 3.418 0 5.004-2.48 1.219-1.906 1.078-4.867-.375-7.723-1.574-3.102-4.273-5.289-6.723-5.453zm0 0" class="B"></path><use xlink:href="#T" class="C"></use><path d="M52.426 18.426c-.363.004-.723.027-1.082.07 2.871.48 6.746 2.438 5.918 9.707-.285 2.484-.09 3.691.379 4.078 2.324-.262 1.5-2.605 1.5-2.605s1.422-11.289-6.715-11.25zm0 0" class="D"></path><path d="M49.301 22.402c-1.734-.117-2.324 1.801-2.52 2.945.621 1.934 2.168 3.863 4.625 5.195.469-.449.879-.953 1.219-1.504 1.363-2.211-.852-6.48-3.324-6.637zm0 0" class="E"></path><use xlink:href="#U" class="C"></use><path d="M69.617 21.117c1.746-1.359 4.047-1.359 5.813-1.059-1.18-.93-2.605-1.496-4.102-1.641-6.113-.398-4.77 13.664-4.77 13.664s-.238.406-.555 1.012c.258-.109.5-.25.723-.418 0 0-.395-9.004 2.891-11.559zm0 0" class="D"></path><path d="M69.617 29.543c-.496 3.977-1.273 4.332-1.273 4.332l1.141 3.359c.84-.199 1.699-.316 2.563-.34 2.957-1.578 6.918-2.398 5.938-7.805-1.277-6.93-7.875-3.516-8.367.453zm0 0" class="E"></path><path d="M59.008 65.711S46.582 85.133 22.938 77.16c0 0-8.059-3.613-1.812-10.309l-.469-.469-1.902 1.938s-3.863-1.531-12.207-1.07A3.9 3.9 0 0 1 3.449 66c-.793-.859-1.156-2.027-.992-3.184.844-5.812 3.625-16.422 12.688-29.457 0 0 14.816 6.125 24.785-.504-1.332.328-2.703.496-4.078.504 0 0 1.258-4.168 5.391-4.828s7.656 3.465 7.656 3.465 6.5-5.426 14.41-1.703 5.539 11.047 5.539 11.047a17.03 17.03 0 0 0-2.562-.148s7.859 2.156 9.469 12.004-11.34 14.066-12.91 20.645l-6.801-2.91s2.242-2.715 2.965-5.219zm0 0" class="C"></path><path d="M33.992 80.48a35.72 35.72 0 0 1-11.504-1.988l-.129-.047c-.172-.078-4.164-1.906-4.902-5.555a6.18 6.18 0 0 1 .285-3.406c-1.23-.352-4.867-1.176-11.129-.82-1.594.09-3.141-.539-4.219-1.707a5.3 5.3 0 0 1-1.344-4.336c.953-6.605 3.973-17.184 12.922-30.051a1.43 1.43 0 0 1 1.711-.5c.121.051 10.148 4.102 18.805 1.707a1.4 1.4 0 0 1 0-.82c.059-.203 1.57-5.02 6.516-5.801 3.535-.57 6.582 1.68 8.039 3.012 2.305-1.48 8.074-4.324 14.852-1.137 7.012 3.297 7.227 9.574 6.332 12.586 2.625 1.785 5.891 5.188 6.902 11.363 1.086 6.629-3.531 10.852-7.602 14.582-2.461 2.254-4.785 4.379-5.312 6.609-.102.402-.371.742-.742.926s-.809.203-1.191.043l-6.801-2.91c-.094-.043-.18-.094-.266-.152a34.97 34.97 0 0 1-4.621 3.527 30.69 30.69 0 0 1-16.602 4.875zm-10.523-4.629c9.309 3.125 17.895 2.254 25.516-2.555a31.23 31.23 0 0 0 8.832-8.348 1.43 1.43 0 0 1 1.734-.461c.617.277.953.941.813 1.598-.449 1.555-1.379 3.125-2.129 4.242l3.797 1.633c1.109-2.359 3.301-4.371 5.602-6.477 3.719-3.41 7.566-6.926 6.727-12.055-1.449-8.855-8.387-10.855-8.453-10.875-.68-.187-1.113-.848-1.02-1.543s.688-1.219 1.391-1.219a28.99 28.99 0 0 1 1.441.035c.227-1.914 0-5.898-5.012-8.258-7.012-3.297-12.844 1.465-12.902 1.512-.594.488-1.473.418-1.977-.164-.031-.031-3.078-3.508-6.367-2.988-1.227.199-2.336.848-3.113 1.82.719-.125 1.227-.25 1.238-.25a1.41 1.41 0 0 1 1.645.781c.281.629.066 1.367-.508 1.746-9 5.984-21.32 2.355-25.031 1.043C7.102 47.727 4.582 57.973 3.863 63.016c-.109.738.121 1.488.629 2.039s1.234.848 1.984.801c6.344-.352 10.227.422 11.879.875l1.297-1.324a1.42 1.42 0 0 1 1-.426 1.41 1.41 0 0 1 1.008.414l.473.469a1.42 1.42 0 0 1 .031 1.953c-1.555 1.668-2.203 3.188-1.934 4.527.406 2.035 2.859 3.309 3.238 3.508zm0 0" class="B"></path><path d="M59.008 65.711S46.992 84.488 24.109 77.539a8.86 8.86 0 0 1-3.391-1.875c-1.711-1.551-3.297-4.281-.23-8.082.434-.547.719-1.195.828-1.883.008-.035-.012-.074-.047-.09a.09.09 0 0 0-.102.02l-2.414 2.691s-3.863-1.535-12.215-1.07c-1.172.074-2.309-.383-3.105-1.242s-1.156-2.031-.988-3.187c.855-5.809 3.633-16.426 12.699-29.461 0 0 14.816 6.125 24.785-.504-1.332.328-2.703.496-4.078.504 0 0 1.258-4.168 5.391-4.828s7.656 3.465 7.656 3.465 6.5-5.426 14.41-1.703 5.539 11.047 5.539 11.047a17.03 17.03 0 0 0-2.562-.148s7.859 2.156 9.469 12.004-11.34 14.066-12.91 20.645l-6.801-2.91s2.242-2.715 2.965-5.219zm0 0" class="C"></path><use xlink:href="#V" class="D"></use><path d="M58.539 48.445h-.238c-1.902-.082-3.625-1.113-4.844-2.906-1.187-1.82-1.762-3.973-1.637-6.145.207-4.828 3.465-8.633 7.254-8.461 1.902.082 3.625 1.117 4.844 2.91a10.17 10.17 0 0 1 1.637 6.141c-.203 4.727-3.328 8.461-7.016 8.461zm.285-15.109c-2.398 0-4.449 2.723-4.598 6.16a7.71 7.71 0 0 0 1.211 4.68c.789 1.148 1.84 1.813 2.965 1.859 2.461.102 4.582-2.656 4.73-6.156a7.74 7.74 0 0 0-1.219-4.68c-.789-1.148-1.84-1.812-2.965-1.859zm0 0" class="B"></path><use xlink:href="#V" class="D"></use><path d="M53.84 43.789c.941 2.008 2.586 3.367 4.512 3.449 3.137.137 5.813-3.137 5.984-7.305.102-1.789-.328-3.57-1.238-5.113-.145 2.707-1.738 6.773-9.258 8.969zm0 0" class="G"></path><path d="M58.832 37.152c-1.367-.059-2.539 1.371-2.617 3.191s.965 3.344 2.332 3.402 2.535-1.371 2.613-3.191-.965-3.344-2.328-3.402zm0 0" class="B"></path><g class="E"><path d="M39.152 36.977l-3.516-2.082c-7.406 2.379-15.801.082-19.086-1.02a20.47 20.47 0 0 0-2.406.941c-1.348 2.012-2.543 3.977-3.605 5.844.043.211.098.418.168.625a5.3 5.3 0 0 0 4.617 3.602c9.383.852 13.789-3.395 15.238-5.234.367-.469.961-.703 1.551-.613 4.633.75 7.039-2.062 7.039-2.062zM57.965 56.02l1.031-3.312s1.156-2.145-.516-2.07a9.5 9.5 0 0 0-4.105 1.156l2.504.918s-3.043 11.598-16.043 13.84-16.117-6.102-29.914-3.625c0 0 16.559 7.703 21.328 8.203s18.102-3.852 18.102-3.852l5.129-6.781zm0 0"></path><path d="M9.793 67.16c6.102.023 8.961 1.156 8.961 1.156l2.211-2.469c-.148-.477-.609-.953-1.687-1.281-3.012-.91-6.711-2.273-10.426-1.598l-3.066.469s2.953 1.676 4.008 3.723zm10.695.414a2.31 2.31 0 0 0 .211-.301l-.211.301zm0 0"></path></g><path d="M27.84 68.789s8.367 4.434 20.207-1.738l3.859-2.699s1.551-1.207.969.441-6.531 7.887-14.605 9.055-13.258-1.914-13.32-2.582l-.23-2.25s.504-1.633 1.992-1 1.129.773 1.129.773zm0 0" fill="rgb(20%,26.27451%,36.078431%)"></path><path d="M55.008 70.352c-13.391 12.348-33.332 6.066-33.145 4.66s4.273-2.781 4.273-2.781c-2.168-2.18-1.191-3.785-1.191-3.785l.746-1.234-4.379-1.516c-.109.688-.395 1.332-.828 1.879-3.047 3.781-1.492 6.504.203 8.059a8.78 8.78 0 0 0 3.418 1.898c15.227 4.621 25.633-2.133 30.902-7.18zm0 0" class="E"></path><path d="M15.145 33.359C6.082 46.395 3.301 57.004 2.457 62.813c-.211 1.449.418 2.895 1.621 3.734-1.305-14.344 8.074-26.09 8.074-26.09l9.914-.969s5.613-1.047 10.633-3.887c-8.652 1.438-17.555-2.242-17.555-2.242zm33.754-1.355s-3.523-4.117-7.656-3.465-5.391 4.828-5.391 4.828h.145a17.46 17.46 0 0 0 1.156-1.055c4.297-4.348 8.867-1.367 10.422-.105.336.273.457.734.297 1.137-.316.832-.551 1.574-.551 1.574 3.172-3.586 7.586-5.176 11.063-5.883-5.512-.348-9.484 2.969-9.484 2.969zm0 0" class="D"></path><path d="M12.152 43.734s-1.641-3.207-4.598-4.246-4.477.777-4.961 2.648.191 6.492 7.918 6.559" class="C"></path><path d="M3.609 40.793s1.496 3.977 4.531 5.02l3.043 1.047s-1.156 2.414-5.398 1.16-3.191-5.883-3.191-5.883zm0 0" class="E"></path><path d="M63.742 51.039l1.996 1.418 1.531-1.418s-.527-5.926-4.219-6.562-3.844-.898-5.902-.582-4.504 1.855-4.504 1.855l-.914 1.438.707.914 2.848.727 5.441.504 2.621 1.539zm0 0" class="C"></path><g class="B"><path d="M61.965 43.387a11.31 11.31 0 0 0-5.191-.105 11.01 11.01 0 0 0-3.863 1.68 9.69 9.69 0 0 0-2.078 1.871c-.418.516-.57.855-.488.926.16.141 1.164-.871 3.109-1.91a11.96 11.96 0 0 1 3.582-1.234c1.516-.25 3.066-.18 4.559.199l1.168.348a3.16 3.16 0 0 1 .445.223 4.36 4.36 0 0 1 .461.285 6.02 6.02 0 0 1 1.48 1.504 7.99 7.99 0 0 1 1.289 3.441 12.41 12.41 0 0 1 .125 1.473l.027.617v.523c0 .629.035.996.133 1.016s.25-.309.438-.945c.039-.156.102-.332.133-.527l.102-.648a9.96 9.96 0 0 0 .09-1.602c-.023-.66-.121-1.32-.285-1.961l-.066-.266a2.29 2.29 0 0 0-.094-.262l-.191-.539c-.074-.18-.172-.355-.262-.535a3.95 3.95 0 0 0-.301-.531 7.02 7.02 0 0 0-1.762-1.926 5.84 5.84 0 0 0-.57-.387c-.215-.133-.445-.246-.68-.34zm-3.172 6.398c-.887-.07-1.777.066-2.598.406-.633.25-1.23.578-1.781.973-.922.672-1.34 1.258-1.215 1.422s.75-.113 1.727-.508a15.54 15.54 0 0 1 1.711-.594 5.57 5.57 0 0 1 1.992-.227c1.355.109 2.145 1.156 2.523 2.082s.531 1.586.742 1.59.449-.695.262-1.879a4.1 4.1 0 0 0-.895-1.988c-.625-.73-1.512-1.187-2.469-1.277zm0 0"></path><path d="M36.484 69.59c-2.133.082-4.266-.172-6.316-.754l-.738-.219-.711-.262c-.48-.16-.926-.383-1.375-.586s-.855-.461-1.293-.684l-1.32-.734a34.4 34.4 0 0 0-5.172-2.344c-1.562-.539-3.172-.937-4.805-1.203a21.26 21.26 0 0 0-7.121-.012c-1.668.305-2.523.734-2.484.824s.922-.133 2.563-.258c2.305-.164 4.617-.004 6.875.473a30.88 30.88 0 0 1 4.559 1.324c1.699.664 3.344 1.457 4.926 2.371l1.266.738 1.391.762c.48.246.977.465 1.48.656l.77.285.793.246c2.195.641 4.48.922 6.766.832 2.273-.074 4.527-.461 6.695-1.156 2.02-.633 3.949-1.512 5.754-2.613a24.48 24.48 0 0 0 4.48-3.539 22.29 22.29 0 0 0 3.078-3.895c.414-.637.734-1.289 1.051-1.891l.402-.914c.129-.277.242-.562.344-.852l.508-1.594c.129-.449.234-.906.316-1.367l.176-1.098c.039-.32.043-.598.055-.82.02-.437 0-.672-.043-.676s-.137.215-.25.637l-.191.777-.305 1.047c-.648 2.203-1.641 4.293-2.937 6.191-.895 1.301-1.918 2.508-3.062 3.594-1.316 1.242-2.77 2.328-4.328 3.246-1.727 1.012-3.562 1.816-5.477 2.398-2.047.637-4.172.996-6.316 1.066zm0 0"></path><path d="M39.945 74.285a23.14 23.14 0 0 0 3.871-1.187l.895-.391.852-.434.82-.445.777-.488c1.793-1.152 3.375-2.602 4.68-4.281a15.68 15.68 0 0 0 2.172-3.648c.379-.93.465-1.492.367-1.523s-.359.441-.879 1.262c-.723 1.156-1.543 2.242-2.461 3.25a20.11 20.11 0 0 1-4.602 3.801l-.738.434c-.25.145-.516.262-.777.395l-.801.391-.844.348c-1.18.457-2.395.82-3.637 1.078l-.477.105-.477.078-.949.156-1.871.184a24.43 24.43 0 0 1-3.547 0c-1.059-.07-2.113-.23-3.148-.477a11.14 11.14 0 0 1-2.535-.969c-.176-.098-.328-.219-.492-.324l-.23-.156-.187-.172a2.52 2.52 0 0 1-.531-.777 2.51 2.51 0 0 1-.152-1.531 2.73 2.73 0 0 1 .406-.949c.133-.211.219-.328.18-.371s-.172 0-.395.168a2.25 2.25 0 0 0-.742.98 2.97 2.97 0 0 0-.078 1.988 3.3 3.3 0 0 0 .613 1.133c.074.094.16.172.242.262s.168.145.258.219l.551.426c.859.547 1.789.973 2.762 1.266a19.3 19.3 0 0 0 3.359.652 23.17 23.17 0 0 0 3.754.082c.652-.016 1.313-.105 1.98-.172l1.008-.16.508-.082zM8.941 43.727c.637.477 1.395 1.422 2.242 3.125 0 0-4.367.254-4.648-1.805-.172-1.27 1.375-2.098 2.406-1.32zm-5.628-1.403c.082-.574.336-1.117.727-1.551.184-.176.395-.32.629-.426.117-.047.238-.082.359-.105l.188-.039.223-.016.426-.039.418.012a2.11 2.11 0 0 1 .41.039l.391.059a5.83 5.83 0 0 1 1.371.48 7.78 7.78 0 0 1 1.762 1.305c.383.371.602.598.691.555s.043-.379-.23-.895c-.41-.734-.984-1.363-1.68-1.84a5.97 5.97 0 0 0-1.609-.773c-.152-.051-.316-.078-.477-.117-.168-.043-.336-.074-.504-.086l-.523-.055h-.82l-.309.039c-.211.035-.418.09-.621.16a3.59 3.59 0 0 0-1.125.703c-.633.637-1.043 1.461-1.172 2.352a5.95 5.95 0 0 0 1.242 4.543c.43.539.938 1.008 1.516 1.383a7.99 7.99 0 0 0 .789.461l.777.316c.777.273 1.602.41 2.426.41.57-.02.895-.098.898-.199s-.285-.219-.816-.367c-.723-.207-1.426-.477-2.102-.805a6.41 6.41 0 0 1-2.395-2.008 4.9 4.9 0 0 1-.859-3.496zm0 0"></path></g><use xlink:href="#W" class="C"></use><path d="M19.539 43.793c-2.324-.016-4.621-.52-6.738-1.48-1.359-.613-2.301-1.883-2.488-3.359-1.887-14.352 4.031-30.391 6.664-36.641.352-.828 1.227-1.305 2.113-1.156s1.559.887 1.617 1.785c.957 13.84 6.879 27.309 9.379 32.461a4.11 4.11 0 0 1-1.164 5.027c-3.281 2.574-6.578 3.363-9.383 3.363zM18.246 6.75c-2.766 7.316-6.66 20.23-5.125 31.84.063.508.387.949.852 1.164 2.66 1.211 7.914 2.625 13.223-1.531a1.3 1.3 0 0 0 .355-1.582c-2.371-4.848-7.68-16.887-9.316-29.891zm0 0" class="B"></path><use xlink:href="#W" class="M"></use><path d="M16.215 39.578c-1.125-.512-1.906-1.562-2.07-2.781-1.562-11.906 1.406-24.918 4.379-34.191-.121.059-.211.16-.258.285-2.375 5.613-8.43 21.719-6.57 35.895.133.992.766 1.848 1.68 2.262 2.211 1.008 6.695 2.395 11.574.188a18.23 18.23 0 0 1-8.734-1.656zm0 0" class="N"></path><use xlink:href="#X" class="C"></use><path d="M34.586 38.578c-1.258-.008-2.5-.281-3.645-.801a2.85 2.85 0 0 1-1.645-2.219c-.961-7.297 2.027-15.398 3.355-18.547.305-.707 1.055-1.117 1.82-.992s1.34.762 1.395 1.531c.469 6.746 3.363 13.332 4.59 15.852.559 1.16.234 2.555-.777 3.355-1.437 1.172-3.234 1.816-5.094 1.82zm-.887-16.187c-1.102 3.531-2.184 8.422-1.609 12.813 1.891.941 4.156.703 5.805-.613a54 54 0 0 1-4.195-12.211zm0 0" class="B"></path><use xlink:href="#X" class="M"></use><path d="M32.895 35.82c-.562-.254-.953-.781-1.031-1.391-.773-5.898.68-12.34 2.152-16.961-.027.023-.047.059-.062.094-1.18 2.785-4.184 10.777-3.262 17.813a1.44 1.44 0 0 0 .836 1.121 6.95 6.95 0 0 0 5.625.148c-1.465.07-2.926-.211-4.258-.824zm0 0" class="N"></path><path d="M71.289 26.965a3.57 3.57 0 0 1 1.504-1.191 4.63 4.63 0 0 1 1.637-.324c1.016-.027 1.691.105 1.777-.082s-.484-.691-1.676-.957a4.5 4.5 0 0 0-2.184.082 4.2 4.2 0 0 0-1.215.602 4.78 4.78 0 0 0-1.023 1 6.57 6.57 0 0 0-1.082 2.371c-.16.66-.246 1.336-.254 2.016 0 1.133.184 1.832.379 1.84s.398-.668.656-1.707.629-2.488 1.48-3.648zm-18.641-3.168l-.285-.418-.332-.363a2.12 2.12 0 0 0-.352-.324 3.35 3.35 0 0 0-.379-.285c-.461-.281-.984-.445-1.527-.473-.914-.02-1.391.344-1.324.531s.523.246 1.137.492a3.49 3.49 0 0 1 .934.57c.082.066.156.137.227.215a1.19 1.19 0 0 1 .223.242l.219.27.195.313c.535.852.824 1.82 1.117 2.5.234.707.484 1.137.688 1.137s.324-.512.34-1.32a6.45 6.45 0 0 0-.879-3.086zm0 0" class="B"></path><path d="M28.215 39.172a2.69 2.69 0 0 0 .59-3.145c-2.359-4.859-8.547-18.746-9.516-32.977 0 0-.621 21.977 8.926 36.121zm10.023-3.109l.566-.41a1.33 1.33 0 0 0 .379-1.637c-1.172-2.41-4.238-9.309-4.727-16.371.004 0-1.609 8.867 3.781 18.418zm0 0" class="D"></path><g class="E"><path d="M75.75 53.215c-1.609-9.848-9.473-12.004-9.473-12.004s8.211 7.363.738 19.297c0 0 3.527-1.352 5.516-3.898 0 0 .32 4.422-6.738 9.941-2.02 1.582-2.605 3.695-2.418 5.891 2.859-5.824 13.871-10.117 12.375-19.227zm0 0"></path><path d="M67.016 41.203h-.043c.629.012 1.254.059 1.875.145 0 0 1.926-5.965-3.512-9.871a16.89 16.89 0 0 1 1.68 9.727zm0 0"></path></g><g class="D"><path d="M44.152 74.914c-.309-.434-.871-.605-1.371-.422-4.598 1.734-10.402 2.516-17.125.445-.582-.176-1.211-.062-1.691.309 0 0 9.633 4.699 20.188-.332zM18.148 45.828s-2.867 5.824-3.492 11.301c-.027.184.094.355.273.398a.36.36 0 0 0 .418-.242c.93-2.801 2.383-7.598 2.801-11.457zm47.188 5.543s.047-7.766-10.328-5.559c0 .016 7.523-.133 10.328 5.559zm-7.031-12.777a1.343 1.343 0 1 1-2.687 0 1.344 1.344 0 1 1 2.688 0zm0 0"></path><path d="M63.082 40.848c0-.223-.855-.402-1.914-.402s-1.914.18-1.914.402.855.406 1.914.406 1.914-.184 1.914-.406zm0 0"></path></g><path d="M29.859 45.367s1.895-2.539 3.512-2.883 4.453-.824 5.305 1.758-2.797 6.129-5.984 6.66" class="C"></path><path d="M37.152 43.254s.359 3.363-5.734 4.52l-1.559.387s2.516 2.305 6.293.832 2.398-5.937 1-5.738zm0 0" class="E"></path><path d="M39.004 43.363a4.46 4.46 0 0 0-.762-.797c-.273-.207-.559-.395-.855-.566a4.32 4.32 0 0 0-.949-.367l-.48-.109-.48-.039h-.234l-.23.016-.449.039a6.51 6.51 0 0 0-.809.203c-.465.152-.906.355-1.32.613a6.41 6.41 0 0 0-1.555 1.309c-.305.367-.414.621-.344.691s.313-.039.711-.25a15.65 15.65 0 0 1 1.664-.82 5.06 5.06 0 0 1 2.469-.437l.336.047c.113.023.215.066.328.098a3.44 3.44 0 0 1 .648.285c.215.109.406.285.617.43.191.16.359.34.508.535a1.85 1.85 0 0 1 .379 1.219 3.16 3.16 0 0 1-.41 1.289 8.89 8.89 0 0 1-1.664 2.039c-1.141 1.074-2.012 1.523-1.957 1.703s1.176.066 2.605-.898a7.8 7.8 0 0 0 2.184-2.164c.375-.562.609-1.207.684-1.875.066-.785-.16-1.562-.633-2.191zm-9.145 4.797s3.215-4.02 4.863-2.41-1.508 3.145-4.863 2.41zm0 0" class="B"></path><g class="C"><path d="M53.199 77.242l2.254-3.77-1.383-.332s2.652-2.273 4.938-7.434 4.336 2.711 4.336 2.711l-1.141 3.977.773 1.023s-.641 4.152 1.176 5.457-10.953-1.633-10.953-1.633zm0 0"></path><path d="M64.641 77.004l-.316-1.918.102-1.562s-1.996 1.637-2.305 3.164 2.52.316 2.52.316zm0 0"></path><use xlink:href="#Y"></use></g><path d="M47.023 98.07a1.07 1.07 0 0 1-.195-.02c-.055 0-5.535-.992-10.953-2.246-10.852-2.508-11.77-3.742-11.809-4.988-.059-1.719-1.727-6.488-2.367-8.184-.125-.332-.082-.711.121-1.008s.535-.477.895-.48c19.828-.363 27.25 9.16 27.555 9.566.262.344.293.805.09 1.184l-.484.898-1.824 4.582a1.11 1.11 0 0 1-1.027.695zM26.266 90.5c1.426 1.23 11.215 3.594 20.063 5.219l1.512-3.797a.79.79 0 0 1 .055-.117l.152-.281c-1.77-1.844-8.809-8.047-23.734-8.184.695 1.969 1.805 5.336 1.953 7.16zm0 0" class="B"></path><use xlink:href="#Y" class="O"></use><use xlink:href="#Z" class="C"></use><path d="M52.559 91.742a1.12 1.12 0 0 1-.957-.551 1.11 1.11 0 0 1-.008-1.098c.23-.402 5.813-9.855 26.629-8.949.363.016.695.207.887.516a1.1 1.1 0 0 1 .086 1.02l-3.105 7.215c-.164.387-.539.645-.957.668l-22.508 1.176zm22.926-8.453c-12.039 0-17.949 3.785-20.426 6.109l19.27-1.008 2.191-5.09zm0 0" class="B"></path><use xlink:href="#Z" class="O"></use><use xlink:href="#a" class="C"></use><path d="M50.27 124.859a1.11 1.11 0 0 1-.605-.18c-12.406-8.105-22.047-5-22.148-4.957-.367.125-.773.047-1.07-.199s-.441-.633-.383-1.016c.715-4.59.332-8.484-.078-12.609l-.449-5.34c-.348-6.094-4.648-12.711-4.695-12.781-.184-.281-.23-.633-.121-.953a1.1 1.1 0 0 1 .672-.687c14.328-5.191 25.801 2.684 28.836 5.09 10.809-9.48 27.75-6.945 28.492-6.832.34.059.633.266.797.57.164.297.18.656.043.969-.051.121-5.242 12.102-5.594 17.293-.359 5.297.57 15.473.586 15.574a1.1 1.1 0 0 1-.391.953c-.281.23-.656.313-1.008.211-10.676-2.988-22.148 4.633-22.262 4.711-.184.121-.398.184-.621.184zm-17.664-7.996c4.242 0 10.492 1.051 17.664 5.578 2.523-1.555 12.156-6.918 21.938-4.973-.254-3.098-.75-10.133-.461-14.395.309-4.531 3.785-13.27 5.195-16.652-4.348-.391-17.637-.832-25.926 7.07-.43.402-1.098.402-1.523 0-.141-.125-11.336-10.27-26.074-5.719 1.336 2.305 4.02 7.531 4.313 12.648.105 1.832.285 3.57.441 5.25.375 3.785.734 7.383.285 11.543a22.31 22.31 0 0 1 4.141-.352zm0 0" class="B"></path><use xlink:href="#a" class="P"></use><path d="M50.156 116.84c.625-.875.102-2.102.102-2.102s-.504-5.305-.027-6.383.375-3.918.375-3.918l-.687-3.391c-.172-1.012-.125-3.953-.125-3.953l.477-4.398s-12.25-11.406-28.488-5.523c0 0 4.504 6.848 4.875 13.324s1.551 11.555.516 18.176c0 0 10.039-3.457 23.105 5.082l-.031-4.887c-.793-.777-.715-1.148-.09-2.027zm0 0" fill="rgb(98.039216%,98.823529%,98.431373%)"></path><use xlink:href="#D" mask="url(#B)"></use><use xlink:href="#G" mask="url(#E)"></use><use xlink:href="#J" mask="url(#H)"></use><path d="M47.984 99.57c-2.035-.844-4.215-1.277-6.414-1.281L41 90.926s5.918 1.379 6.977 2.949zm0 0" class="Q"></path><path d="M50.16 121.473c-.109 0-.199-.074-.219-.18-.082-.465.055-2.207.098-2.707l-.035-.031a1.23 1.23 0 0 1-.437-.941c0-.359.16-.703.438-.941l.121-.098c.145-.121.234-.297.242-.488a.67.67 0 0 0-.191-.508l-.074-.078c-.039-.039-.062-.09-.066-.145l-.039-6.992c.016-.398.078-.797.191-1.18a4.64 4.64 0 0 0 .184-1.109c-.035-1.195-.18-2.383-.434-3.547a16.12 16.12 0 0 1-.375-2.961 18.3 18.3 0 0 1 .484-4.148c.031-.117.148-.187.27-.156s.188.148.156.27a18.47 18.47 0 0 0-.449 4.039c.035.965.16 1.93.371 2.875.258 1.195.402 2.406.438 3.629a4.81 4.81 0 0 1-.195 1.219c-.102.348-.16.707-.176 1.07l.039 6.891.012.016a1.13 1.13 0 0 1 .32.852 1.11 1.11 0 0 1-.406.801l-.117.105a.77.77 0 0 0-.285.598c0 .234.105.457.285.605l.125.109c.055.043.082.113.074.184l-.113 2.699c.023.121-.059.238-.18.262zm0 0" class="B"></path><path d="M52.91 101.656s12.898-3.348 17.883-2.086v3.852s-12.621.996-17.094 3.203zm0 0" fill="rgb(72.941176%,75.686275%,78.039216%)"></path><use xlink:href="#M" mask="url(#K)"></use><use xlink:href="#P" mask="url(#N)"></use><g class="Q"><path d="M72.012 97.051s-11.352-.031-19.32 2.867l.219.91s7.406-2.457 18.602-2.812h.5zm-18.789-4.258a31.19 31.19 0 0 1 3.016 1.836l-.402-1.781c-.02-.18-.105-.348-.242-.469a.8.8 0 0 0-.629 0l-.023-.109 1.641-.457c0 .039.016.078.023.117-.145.043-.281.113-.406.199a.45.45 0 0 0-.129.219 1.08 1.08 0 0 0 .031.434l.758 3.465-.117.023a30.69 30.69 0 0 0-4.074-2.5l.695 2.426a.52.52 0 0 0 .309.398c.148.043.309.043.457 0l.109-.023.031.105-1.652.406c0-.031-.023-.066-.031-.098.188-.035.363-.129.496-.27.082-.145.09-.316.027-.465l-.781-2.676-.133-.07a.98.98 0 0 0-.328-.105 1.11 1.11 0 0 0-.359.07c0-.035-.02-.07-.027-.102l1.742-.574zm0 0"></path><path d="M58.855 91.52l.309 1.809.098-.016a.84.84 0 0 0 .633-.395 1.6 1.6 0 0 0 .145-.852l.141-.027.363 2.387-.137.02c-.051-.219-.148-.426-.285-.609a.72.72 0 0 0-.371-.281 1.29 1.29 0 0 0-.547 0l.215 1.246c.016.156.055.305.113.449a.29.29 0 0 0 .145.113.67.67 0 0 0 .305 0l.285-.039a1.72 1.72 0 0 0 1.023-.43 1.67 1.67 0 0 0 .465-.988l.129-.02-.02 1.512-4.098.57c0-.043-.012-.082-.023-.117l.156-.027a.72.72 0 0 0 .32-.125c.059-.043.098-.105.109-.176a1.22 1.22 0 0 0-.039-.41l-.547-2.84c-.02-.121-.047-.238-.086-.355a.32.32 0 0 0-.172-.141.69.69 0 0 0-.398 0l-.164.039c0-.035-.02-.074-.023-.117l4.203-.934.188 1.379-.137.023a1.55 1.55 0 0 0-.402-.668 1.03 1.03 0 0 0-.598-.215 3.11 3.11 0 0 0-.785.102zm10.633-1.735v.145c-.086.012-.172.043-.242.098a.65.65 0 0 0-.168.227c0 .031-.094.238-.227.625l-1.402 4.383h-.141l-1.387-3.25-1.09 3.316h-.133l-1.992-3.812a3.69 3.69 0 0 0-.437-.656.45.45 0 0 0-.355-.086l-.016-.129 2.207-.348v.133a.7.7 0 0 0-.348.129c-.051.051-.078.117-.07.188a2.21 2.21 0 0 0 .234.57l1.18 2.301.641-1.969-.242-.512a4.46 4.46 0 0 0-.309-.57.51.51 0 0 0-.234-.18.72.72 0 0 0-.363-.02v-.137l2.484-.281v.141c-.129.012-.254.035-.375.078-.047.02-.09.055-.117.102s-.043.094-.039.145a2.68 2.68 0 0 0 .195.52l1.02 2.406.738-2.289.148-.488a1.28 1.28 0 0 0 .027-.242c.004-.094-.039-.187-.113-.246-.125-.07-.27-.094-.41-.07v-.145l1.336-.074zm3.746-.215l-.035 1.895h-.152c-.035-.422-.207-.824-.496-1.137a1.22 1.22 0 0 0-.922-.418c-.227-.008-.449.078-.617.234a.7.7 0 0 0-.227.516.65.65 0 0 0 .074.32c.09.148.207.273.348.375.254.176.52.336.797.484a3.31 3.31 0 0 1 1.137.953 1.7 1.7 0 0 1 .254 1.02c-.008.449-.195.879-.523 1.191a1.5 1.5 0 0 1-1.199.422 2 2 0 0 1-.426-.082c-.172-.062-.34-.137-.5-.227-.086-.051-.184-.082-.285-.094-.07.004-.141.027-.191.074a.53.53 0 0 0-.168.234h-.129v-2.043h.133a2.63 2.63 0 0 0 .605 1.34 1.43 1.43 0 0 0 .953.512.8.8 0 0 0 .637-.211c.156-.148.25-.352.254-.566a.91.91 0 0 0-.078-.395 1.15 1.15 0 0 0-.27-.363c-.199-.18-.422-.332-.656-.461-.34-.187-.66-.402-.965-.645-.187-.16-.34-.352-.457-.57a1.53 1.53 0 0 1-.164-.691c-.004-.426.16-.836.461-1.137s.707-.477 1.133-.48a1.72 1.72 0 0 1 .488.055 2.07 2.07 0 0 1 .434.184 1.01 1.01 0 0 0 .352.133c.063 0 .121-.023.16-.07a.78.78 0 0 0 .117-.32zm0 0"></path></g><path d="M73.449 118.898s-.961-10.305-.59-15.75c.156-2.305 1.199-5.816 2.348-9.09-2.281 3.543-3.516 8.164-3.516 8.164l1.094 15.18-1.273-.223-2.02-.625v1.051c-5.617-.996-13.891 3.336-15.641 2.492s-3.703-3.258-4.016-2.758.402 1.523.402 1.523l-.078 1.184c-2.363.57-20.336-3.988-21.332-6.309s-.555-6.289-2.383-16.645c-.805-4.547-2.391-7.172-3.914-8.672 1.297 2.27 3.844 7.266 4.117 12.07.367 6.477 1.551 11.555.516 18.18 0 0 10.043-3.461 23.105 5.078 0 .004 11.887-8.016 23.18-4.852zm0 0" class="P"></path><g class="B"><path d="M33.555 101.262a.71.71 0 0 0 .133-.359l-.031-.012c-.004-.047-.012-.09-.023-.133-.023-.18-.082-.48-.164-.855a8.58 8.58 0 0 0-.625-1.812 2.96 2.96 0 0 0-.555-.793 1.54 1.54 0 0 0-.219-.176c-.043-.059-.086-.113-.137-.164a1.52 1.52 0 0 0-.484-.363 3.64 3.64 0 0 1-.621-.395c-.395-.32-.805-.621-1.23-.898-.633-.387-1.32-.676-2.043-.852-.969-.281-1.969-.437-2.98-.465-.59-.004-1.18.074-1.746.234-.621.18-1.215.449-1.754.801-.578.363-1.074.848-1.441 1.422a7.1 7.1 0 0 0-.934 2.68 16.81 16.81 0 0 0-.324 2.762c0 .145-.031.301-.031.473.008.613.082 1.223.223 1.816a10.15 10.15 0 0 0 1.426 3.383c.801 1.23 1.945 2.199 3.297 2.789 1.379.586 2.465.813 3.344.813.031.023.063.047.098.063.164.086.348.129.531.125h.332l.855-.031a4.48 4.48 0 0 0 1.527-.363 1.92 1.92 0 0 0 .668-.516 1.47 1.47 0 0 0 .313-.852 4.29 4.29 0 0 0 .758-.648c.301-.328.527-.715.668-1.137.027-.008.055-.023.082-.035a.82.82 0 0 0 .16-.121 1.59 1.59 0 0 0 .199-.23 3.96 3.96 0 0 0 .285-.52 6.22 6.22 0 0 0 .355-1.023 4.86 4.86 0 0 0 .16-1.187c.004-.246-.027-.496-.086-.738a2.07 2.07 0 0 0-.262-.566 6.32 6.32 0 0 0 .145-1.383c0-.18-.016-.359-.027-.539.066-.055.121-.117.16-.191zm0 0"></path><path d="M27.594 111.945h-.336c-.277.004-.555-.062-.801-.187a9.53 9.53 0 0 1-3.406-.852c-1.457-.633-2.695-1.676-3.562-3.008a10.89 10.89 0 0 1-1.512-3.586c-.148-.641-.227-1.293-.234-1.949 0-.109 0-.211.016-.309s0-.109 0-.164c.027-.914.133-1.824.313-2.719l.02-.145a7.83 7.83 0 0 1 1.031-2.926c.418-.652.973-1.203 1.625-1.617a7.24 7.24 0 0 1 1.914-.871 6.92 6.92 0 0 1 1.914-.262 12.53 12.53 0 0 1 3.137.484c.781.195 1.523.512 2.211.934a11.92 11.92 0 0 1 .996.719l.285.211a3.1 3.1 0 0 0 .512.332 2.1 2.1 0 0 1 .672.496l.113.137a1.95 1.95 0 0 1 .223.18c.273.281.5.605.672.957a9.29 9.29 0 0 1 .676 1.949l.172.883a.53.53 0 0 1 .059.246c-.004.246-.082.488-.223.691l-.043.063v.313c.004.426-.035.855-.105 1.277a2.54 2.54 0 0 1 .203.527c.074.293.113.59.109.891-.004.449-.062.898-.18 1.332-.098.391-.23.77-.395 1.137-.094.211-.207.414-.336.609a2.26 2.26 0 0 1-.285.328c-.051.051-.109.098-.168.141a3.79 3.79 0 0 1-.711 1.137c-.195.207-.406.398-.637.566-.059.332-.199.645-.41.906a2.5 2.5 0 0 1-.875.684 5.02 5.02 0 0 1-1.738.422l-.914.043zm-.336-1.207h.336l.813-.031c.453-.023.898-.129 1.316-.309a1.32 1.32 0 0 0 .457-.344c.113-.148.176-.324.184-.512a.59.59 0 0 1 .262-.477c.238-.156.453-.344.648-.555.246-.266.43-.586.543-.93a.61.61 0 0 1 .344-.371l.285.535-.238-.566.016-.02c.043-.043.078-.09.109-.141a2.36 2.36 0 0 0 .234-.422c.137-.297.242-.605.324-.922a4.65 4.65 0 0 0 .141-1.035c0-.199-.023-.398-.07-.59-.039-.141-.102-.273-.18-.398a.58.58 0 0 1-.086-.453 5.93 5.93 0 0 0 .133-1.258c0-.129 0-.258-.02-.391v-.109c-.012-.195.074-.387.227-.508l.027-.02c0-.043-.016-.074-.02-.113-.02-.156-.078-.441-.156-.777-.125-.582-.316-1.145-.57-1.684a2.29 2.29 0 0 0-.437-.633c-.043-.043-.09-.078-.137-.113s-.094-.074-.133-.117l-.102-.129c-.086-.094-.187-.172-.301-.23-.262-.125-.504-.277-.727-.457-.098-.066-.191-.145-.285-.223-.289-.234-.586-.449-.895-.645A6.56 6.56 0 0 0 27.426 95c-.918-.266-1.871-.414-2.828-.445-.535-.004-1.066.07-1.582.215a5.99 5.99 0 0 0-1.59.73 3.96 3.96 0 0 0-1.258 1.25 6.39 6.39 0 0 0-.855 2.453l-.023.145a15.6 15.6 0 0 0-.285 2.52v.285a1.07 1.07 0 0 0-.016.195c.008.57.078 1.133.207 1.688a9.56 9.56 0 0 0 1.34 3.18c.734 1.133 1.789 2.023 3.031 2.559a8.15 8.15 0 0 0 3.105.766.61.61 0 0 1 .348.109.52.52 0 0 0 .238.09zm0 0"></path><path d="M32.879 98.715a6.57 6.57 0 0 0-.57-1.277c-.105-.172-.227-.336-.367-.484a1.59 1.59 0 0 0-.484-.367 3.62 3.62 0 0 1-.621-.391l-1.23-.902a7.28 7.28 0 0 0-2.043-.852c-.969-.281-1.969-.437-2.977-.461a6.28 6.28 0 0 0-1.75.234 6.6 6.6 0 0 0-1.754.801 4.68 4.68 0 0 0-1.441 1.422c-.484.82-.797 1.73-.918 2.676-.18.914-.285 1.836-.316 2.766 0 .145-.043.301-.043.469.008.613.082 1.223.219 1.82.266 1.203.75 2.348 1.422 3.383.805 1.23 1.949 2.199 3.297 2.785 1.391.594 2.469.813 3.352.813.602.004 1.203-.109 1.762-.336l1.027-.469c.859-.293 1.641-.777 2.281-1.422.336-.371.582-.812.715-1.293.086-.312.137-.629.152-.949l.066-1.258c.023-.375.121-.742.285-1.082.344-.742.508-1.559.48-2.375-.008-1.105-.191-2.203-.543-3.25zm0 0"></path></g><path d="M18.996 101.957c.285-2.43.262-5.043 2.418-6.418 1.996-1.266 3.824-1.059 5.984-.496s2.723 1.621 3.785 2.117 2.266 4.813 1.199 6.887.855 4.141-3.18 5.707c-.992.387-2.133 1.508-5.66 0-3.895-1.66-4.715-6.391-4.547-7.797zm0 0" class="C"></path><path d="M32.383 104.055c1.063-2.07-.145-6.391-1.203-6.883s-1.629-1.551-3.785-2.117c-.668-.184-1.352-.316-2.043-.398 1.684.605 3.082 1.012 3.207 2.145.172 1.551-1.344 4.297 2.406 5.113 0 0-1.84.352-2.191 2.078s1.094 2.875 1.137 3.234-3.008-1.219-3.465.379-7.051.336-7.273-7.18l-.168 1.551c-.172 1.406.648 6.137 4.539 7.797 3.531 1.508 4.672.387 5.664 0 4.031-1.586 2.113-3.656 3.176-5.719zm0 0" class="E"></path><g class="B"><path d="M28.313 101.887s-2.086.672-.797 3.023c0 0-.371-1.965.797-3.023zm-1.059-4.196s-1.227 2.148.445 3.066c0 0-.66-1.691-.445-3.066zm-.816 8.145s-2.297-.246-1.625 2.438c0 0 .246-2.082 1.625-2.437zm6.777-2.613l-.422.324.422-.324a1.37 1.37 0 0 0-.379-.328 3.33 3.33 0 0 0-1.637-.484 1.88 1.88 0 0 0-.488.063 1.45 1.45 0 0 0-.48.219c-.324.238-.602.535-.812.875a2.47 2.47 0 0 0-.391 1.309 2.27 2.27 0 0 0 .219.973c.164.328.395.617.676.852a4.84 4.84 0 0 0 1.227.75l.5.207.18.066.094.035a.62.62 0 0 0 .238.051.59.59 0 0 0 .313-.086.94.94 0 0 0 .164-.117 2.22 2.22 0 0 0 .195-.234 3.68 3.68 0 0 0 .285-.516 6.03 6.03 0 0 0 .355-1.027c.102-.387.156-.785.164-1.184a2.94 2.94 0 0 0-.09-.738 1.86 1.86 0 0 0-.332-.684zm0 0"></path><path d="M29.363 101.172c.34.238.723.406 1.125.492a6.33 6.33 0 0 0 1.355.16 3.8 3.8 0 0 0 1.07-.141 1.38 1.38 0 0 0 .422-.211c.066-.051.211-.117.27-.211s.18-.223.18-.359l-.074-.012c0-.047-.047-.086-.055-.133-.02-.18-.094-.48-.176-.855-.141-.625-.352-1.234-.633-1.812-.141-.297-.336-.566-.57-.797-.117-.117-.254-.211-.406-.285s-.34.059-.527.059l-.043.184c-.187 0-.406-.18-.645-.168a2.32 2.32 0 0 0-.57 0 1.66 1.66 0 0 0-.453.125c-.238.121-.441.305-.594.527a2.42 2.42 0 0 0-.34.875 4.61 4.61 0 0 0-.105.93 2.45 2.45 0 0 0 .105.75c.125.355.359.664.664.883zm1 7.101c-.285-.262-.605-.48-.949-.656l-.391-.191-.23-.102-.211.484.211-.484c-.316-.16-.668-.25-1.023-.266a1.31 1.31 0 0 0-.57.121 1.26 1.26 0 0 0-.355.27 1.79 1.79 0 0 0-.344.566 3.64 3.64 0 0 0-.199.754 7.41 7.41 0 0 0-.133 1.211c-.004.16.012.32.047.477.02.117.063.23.117.336a.96.96 0 0 0 .398.41 1.11 1.11 0 0 0 .535.125h.328l.855-.031a4.51 4.51 0 0 0 1.531-.367 1.9 1.9 0 0 0 .668-.512c.195-.25.305-.555.313-.871v-.047a1.41 1.41 0 0 0-.113-.539 1.98 1.98 0 0 0-.484-.687zm0 0"></path></g><path d="M32.793 103.547c-.281-.359-1.613-.887-2.25-.426s-1.309 1.445-.812 2.504 2.086 1.516 2.402 1.66 1.535-2.613.66-3.738zm0 0" class="D"></path><path d="M32.254 107.016c-.285-.125-1.676-.523-2.109-1.453s.156-1.793.715-2.195 1.734.059 1.973.371c.188.273.281.598.27.93a1.76 1.76 0 0 0-.309-1.121c-.281-.359-1.613-.887-2.25-.426s-1.309 1.445-.812 2.504 2.086 1.516 2.402 1.66c.176.074.617-.711.84-1.625-.199.773-.57 1.422-.719 1.355zm0 0" class="G"></path><path d="M31.332 97.406c-.832.031-1.816-.137-2.098 1.27s.035 2.152 1.379 2.469 2.504.07 2.488-.246-.586-3.535-1.77-3.492zm0 0" class="D"></path><path d="M30.879 100.957c-1.203-.285-1.488-.949-1.234-2.211s1.141-1.105 1.875-1.133a.86.86 0 0 1 .684.418c-.238-.375-.531-.637-.871-.625-.832.031-1.816-.137-2.098 1.27s.035 2.152 1.379 2.469 2.504.07 2.488-.246a.51.51 0 0 0 0-.109c-.125.258-1.102.426-2.223.168zm0 0" class="G"></path><path d="M28.566 107.809c-.969-.43-1.508-.316-1.746 1.063s-.152 1.941.441 1.941 3.133.105 3.176-1.27c.031-.941-1.609-1.621-1.871-1.734zm0 0" class="D"></path><path d="M27.645 110.813c-.523 0-.598-.5-.391-1.707s.684-1.312 1.539-.934c.219.098 1.57.645 1.637 1.438v-.066c.035-.953-1.609-1.617-1.867-1.73-.969-.43-1.508-.316-1.746 1.063s-.156 1.938.441 1.938zm0 0" class="G"></path><path d="M20.078 101.23c-.43-2.379.211-5.164 2.832-5.734s.82.676-.98 2.352c-.902.84-1.852 3.383-1.852 3.383zm0 0" class="D"></path><path d="M26.309 102.387s.117-1.422 1.758-1.035c0 0-1.238.281-1.758 1.035zm-1.403 3.492s.57-1.293 1.992-.406c.004.004-1.258-.141-1.992.406zm0 0" class="E"></path><path d="M27.289 95.961c.598.094 1.117.809.379 1.66.02-.348-.035-.691-.16-1.016-.234-.461-.68-.719-.219-.645zm0 0" class="D"></path><g class="B"><path d="M66.832 100.859c-.074-.105-.117-.227-.129-.355v-.02h.027c0-.047.02-.082.023-.133.023-.18.082-.477.168-.855.141-.625.348-1.234.621-1.812.145-.297.34-.562.57-.797l.219-.176.133-.16a1.56 1.56 0 0 1 .488-.367c.219-.109.426-.238.621-.391l1.227-.898a6.95 6.95 0 0 1 2.043-.852 11.66 11.66 0 0 1 2.98-.469c.59 0 1.18.078 1.75.238a6.6 6.6 0 0 1 1.754.801 4.73 4.73 0 0 1 1.441 1.438c.488.82.805 1.73.93 2.676a17.3 17.3 0 0 1 .328 2.766c0 .145.031.301.031.473a8.85 8.85 0 0 1-.223 1.816c-.266 1.207-.75 2.352-1.426 3.387a7.45 7.45 0 0 1-3.297 2.781 8.68 8.68 0 0 1-3.34.816.83.83 0 0 1-.098.063 1.1 1.1 0 0 1-.535.121h-.332c-.23 0-.531 0-.855-.031a4.42 4.42 0 0 1-1.531-.367 1.82 1.82 0 0 1-.664-.516 1.47 1.47 0 0 1-.316-.852 4.11 4.11 0 0 1-.754-.645 3.14 3.14 0 0 1-.672-1.152l-.082-.031a.96.96 0 0 1-.16-.121c-.074-.07-.141-.148-.195-.234a3.68 3.68 0 0 1-.285-.516 6.23 6.23 0 0 1-.359-1.023c-.102-.387-.152-.785-.16-1.187a2.96 2.96 0 0 1 .09-.738 2.03 2.03 0 0 1 .258-.57 6.85 6.85 0 0 1-.145-1.387c0-.176.02-.355.027-.535a.64.64 0 0 1-.172-.184zm0 0"></path><path d="M71.883 111.508a5.16 5.16 0 0 1-1.742-.426c-.34-.16-.637-.391-.871-.68-.211-.266-.352-.574-.414-.906a4.37 4.37 0 0 1-.633-.566 3.79 3.79 0 0 1-.711-1.137c-.059-.043-.117-.09-.168-.137-.109-.102-.203-.211-.285-.332a3.67 3.67 0 0 1-.336-.605 6.54 6.54 0 0 1-.398-1.137c-.113-.434-.172-.883-.176-1.332-.004-.301.031-.602.109-.891a2.54 2.54 0 0 1 .203-.527 7.76 7.76 0 0 1-.109-1.277v-.309l-.043-.062a1.28 1.28 0 0 1-.223-.699c0-.086.02-.168.059-.246a10.2 10.2 0 0 1 .176-.875c.148-.676.371-1.332.672-1.953a3.47 3.47 0 0 1 .676-.953 2.46 2.46 0 0 1 .215-.187l.117-.137a2.31 2.31 0 0 1 .668-.496 2.8 2.8 0 0 0 .516-.324l.273-.211c.32-.258.652-.5 1-.719.684-.426 1.426-.742 2.207-.937 1.02-.293 2.074-.457 3.133-.484a7.18 7.18 0 0 1 1.914.258 7.38 7.38 0 0 1 1.914.875c.652.414 1.211.969 1.625 1.621.531.891.875 1.875 1.02 2.898l.023.145c.18.898.281 1.809.313 2.719a1.15 1.15 0 0 0 0 .164c0 .098.016.199.016.313a9.11 9.11 0 0 1-.238 1.949c-.281 1.273-.793 2.488-1.512 3.582a7.99 7.99 0 0 1-3.562 3.004c-1.07.496-2.223.785-3.402.855a1.74 1.74 0 0 1-.805.188h-.336c-.18.012-.52.008-.883-.023zm1.527-1.246a.6.6 0 0 1 .352-.113c1.074-.047 2.129-.309 3.105-.766 1.242-.535 2.297-1.426 3.031-2.559a9.69 9.69 0 0 0 1.34-3.18 7.88 7.88 0 0 0 .207-1.684v-.199c0-.062-.02-.187-.02-.285a15.22 15.22 0 0 0-.285-2.52l-.02-.145c-.117-.867-.406-1.703-.855-2.453a4.1 4.1 0 0 0-1.258-1.254c-.492-.316-1.031-.562-1.594-.727-.516-.145-1.047-.219-1.582-.215-.957.031-1.906.18-2.828.445-.66.168-1.293.434-1.871.789a9.81 9.81 0 0 0-.895.645l-.285.227a3.79 3.79 0 0 1-.727.457 1.03 1.03 0 0 0-.305.23l-.102.125a.56.56 0 0 1-.129.125c-.051.031-.098.066-.141.109-.18.188-.324.398-.437.633-.254.539-.445 1.102-.57 1.684l-.152.781c0 .035 0 .07-.02.105l.023.02a.6.6 0 0 1 .227.508v.109c0 .133-.016.266-.02.391a6.2 6.2 0 0 0 .129 1.262c.035.156.008.316-.082.453-.078.121-.141.258-.18.398a2.13 2.13 0 0 0-.07.586c.004.352.055.699.145 1.039a5.56 5.56 0 0 0 .32.918 2.99 2.99 0 0 0 .23.426l.113.137c.02.02.031.027 0 .02l-.238.57.285-.535c.16.066.285.199.34.367a2.7 2.7 0 0 0 .543.934c.195.207.414.395.648.551a.59.59 0 0 1 .262.477c.008.188.07.367.188.512s.277.266.453.344a3.83 3.83 0 0 0 1.301.301l.809.031h.336c.098.004.195-.023.277-.074zm0 0"></path><path d="M67.512 98.309a6.61 6.61 0 0 1 .57-1.27 2.8 2.8 0 0 1 .367-.488 1.59 1.59 0 0 1 .484-.367c.223-.109.43-.238.621-.391l1.23-.898c.629-.391 1.32-.68 2.043-.852.969-.285 1.969-.441 2.977-.469.594 0 1.184.078 1.754.238a6.52 6.52 0 0 1 1.75.801 4.7 4.7 0 0 1 1.445 1.438c.473.82.773 1.73.887 2.676a16.81 16.81 0 0 1 .285 2.766c0 .145.074.301.074.473a8.6 8.6 0 0 1-.203 1.816c-.262 1.207-.746 2.352-1.422 3.387-.801 1.223-1.941 2.188-3.285 2.77-1.391.594-2.465.813-3.348.813-.605.004-1.199-.109-1.758-.336l-1.031-.469c-.859-.293-1.641-.777-2.281-1.422-.336-.367-.582-.812-.719-1.293-.082-.312-.133-.629-.152-.949l-.062-1.258c-.027-.375-.121-.742-.285-1.082a5.26 5.26 0 0 1-.48-2.379c.008-1.105.188-2.203.539-3.254zm0 0"></path></g><path d="M81.395 101.555c-.285-2.426-.262-5.043-2.418-6.418-1.992-1.266-3.824-1.059-5.98-.492s-2.727 1.621-3.785 2.113-2.281 4.813-1.207 6.887-.852 4.141 3.188 5.711c.992.383 2.129 1.504 5.66 0 3.891-1.664 4.711-6.395 4.543-7.801zm0 0" class="C"></path><path d="M68.008 103.645c-1.059-2.074.145-6.391 1.207-6.887s1.625-1.551 3.781-2.113a13.59 13.59 0 0 1 2.043-.402c-1.68.605-3.078 1.016-3.203 2.145-.176 1.555 1.344 4.297-2.406 5.113 0 0 1.84.348 2.191 2.078s-1.102 2.871-1.141 3.234 3.008-1.223 3.469.379 7.047.332 7.273-7.18l.164 1.547c.172 1.406-.648 6.141-4.539 7.801-3.527 1.504-4.668.383-5.66 0-4.031-1.574-2.117-3.641-3.18-5.715zm0 0" class="E"></path><g class="B"><path d="M72.078 101.5s2.086.672.813 3.031c0-.016.355-1.988-.812-3.031zm1.063-4.211s1.223 2.148-.449 3.066c0 .008.66-1.695.449-3.066zm.812 8.145s2.305-.246 1.633 2.434c-.004 0-.254-2.078-1.633-2.434zm-6.777-2.614l.422.32-.422-.32a1.44 1.44 0 0 1 .379-.324 3.09 3.09 0 0 1 .746-.336 2.94 2.94 0 0 1 .891-.148 1.87 1.87 0 0 1 .488.055 1.61 1.61 0 0 1 .48.219c.324.238.602.535.813.875a2.49 2.49 0 0 1 .391 1.313 2.21 2.21 0 0 1-.223.973 2.59 2.59 0 0 1-.672.852 4.84 4.84 0 0 1-1.223.746l-.504.207-.176.066-.094.039a.64.64 0 0 1-.242.051.67.67 0 0 1-.312-.086.82.82 0 0 1-.16-.121c-.074-.07-.141-.148-.195-.234a3.32 3.32 0 0 1-.285-.516 5.89 5.89 0 0 1-.359-1.023 4.84 4.84 0 0 1-.16-1.184 2.97 2.97 0 0 1 .09-.742 1.94 1.94 0 0 1 .328-.68zm0 0"></path><path d="M71.027 100.773a3.05 3.05 0 0 1-1.141.484 6.07 6.07 0 0 1-1.352.164c-.363.008-.723-.039-1.07-.141a1.43 1.43 0 0 1-.422-.211c-.066-.059-.121-.133-.16-.211-.055-.113-.074-.234-.066-.355v-.02h-.035v-.133a8.89 8.89 0 0 1 .148-.855 8.48 8.48 0 0 1 .617-1.812 3.04 3.04 0 0 1 .555-.797c.117-.113.254-.211.402-.285a1.25 1.25 0 0 1 .523-.023l.047.098c.188 0 .406-.094.645-.082.191-.012.379 0 .57.027a1.68 1.68 0 0 1 .449.148c.242.125.445.309.594.535a2.44 2.44 0 0 1 .34.879 4.61 4.61 0 0 1 .105.93c.004.258-.031.512-.109.754a1.79 1.79 0 0 1-.641.906zm-.984 7.094a4.63 4.63 0 0 1 .945-.652l.395-.191.227-.102.219.484-.219-.484c.32-.156.672-.25 1.027-.266a1.24 1.24 0 0 1 .57.125c.133.066.254.156.355.266a1.82 1.82 0 0 1 .348.57 3.83 3.83 0 0 1 .195.75c.078.402.121.809.133 1.215a2.77 2.77 0 0 1-.043.477 1.42 1.42 0 0 1-.121.336.94.94 0 0 1-.398.41c-.164.086-.348.129-.535.121h-.332c-.23 0-.531 0-.855-.031-.527-.031-1.047-.152-1.531-.363a1.87 1.87 0 0 1-.664-.52 1.46 1.46 0 0 1-.316-.852v-.047a1.4 1.4 0 0 1 .109-.539 2.08 2.08 0 0 1 .492-.707zm0 0"></path></g><path d="M67.598 103.141c.285-.355 1.617-.879 2.25-.422s1.309 1.445.816 2.504-2.09 1.52-2.406 1.656-1.531-2.605-.66-3.738zm0 0" class="D"></path><path d="M68.137 106.613c.285-.121 1.676-.527 2.109-1.453s-.156-1.793-.715-2.195-1.73.059-1.973.371c-.187.273-.281.598-.27.93-.027-.402.082-.805.309-1.137.285-.355 1.617-.883 2.25-.426s1.309 1.445.816 2.508-2.09 1.516-2.406 1.656c-.176.078-.613-.707-.836-1.621.199.801.566 1.434.715 1.367zm0 0" class="G"></path><path d="M69.059 97.008c.832.031 1.816-.145 2.098 1.27s-.035 2.148-1.379 2.469-2.504.07-2.488-.25.586-3.539 1.77-3.488zm0 0" class="D"></path><path d="M69.516 100.555c1.203-.285 1.488-.945 1.234-2.207s-1.141-1.109-1.875-1.137c-.285.016-.543.176-.687.422.242-.383.535-.641.871-.625.832.031 1.816-.145 2.098 1.27s-.035 2.148-1.379 2.469-2.504.07-2.488-.25v-.105c.113.258 1.105.43 2.227.164zm0 0" class="G"></path><path d="M71.828 107.406c.965-.426 1.504-.312 1.746 1.063s.148 1.938-.441 1.938-3.137.109-3.18-1.27c-.031-.949 1.613-1.617 1.875-1.73zm0 0" class="D"></path><path d="M72.75 110.406c.52 0 .598-.496.387-1.703s-.684-1.309-1.535-.934c-.219.098-1.57.648-1.641 1.438v-.066c-.035-.953 1.613-1.617 1.871-1.73.969-.43 1.508-.312 1.746 1.059s.152 1.941-.441 1.941h-.383zm0 0" class="G"></path><path d="M80.313 100.828c.43-2.375-.207-5.16-2.832-5.734s-.82.676.984 2.352c.902.844 1.848 3.383 1.848 3.383zm0 0" class="D"></path><path d="M74.082 101.984s-.117-1.406-1.758-1.035c0 0 1.242.266 1.758 1.035zm1.406 3.493s-.57-1.289-1.996-.406c-.004 0 1.262-.141 1.996.406zm0 0" class="E"></path><path d="M73.102 95.563c-.598.094-1.117.809-.379 1.656-.023-.348.031-.695.16-1.016.234-.465.684-.715.219-.641zm0 0" class="D"></path></svg>